<svg xmlns="http://www.w3.org/2000/svg" xmlns:xlink="http://www.w3.org/1999/xlink" fill="none" version="1.1" width="1044.662109375" height="620.1337890625" viewBox="0 0 1044.662109375 620.1337890625"><defs><clipPath id="master_svg0_4875_55989"><rect x="0" y="0" width="1044.662109375" height="620.1337890625" rx="0"/></clipPath></defs><g clip-path="url(#master_svg0_4875_55989)"><g style="mix-blend-mode:passthrough"><g style="opacity:0.44999998807907104;mix-blend-mode:passthrough" transform="matrix(0.9925461411476135,-0.12186934053897858,0.12186934053897858,0.9925461411476135,-58.30330533859535,113.27046359526094)"><g style="opacity:0.25;mix-blend-mode:passthrough"><g><ellipse cx="959.6309490203857" cy="564.9022464752197" rx="21.783048629760742" ry="21.766008377075195" fill="#CFDAE6" fill-opacity="1"/></g></g><g style="opacity:0.5999999642372131;mix-blend-mode:passthrough"><g><ellipse cx="902.0435633659363" cy="546.3007807731628" rx="5.217391490936279" ry="5.2133097648620605" fill="#CFDAE6" fill-opacity="1"/></g></g><g style="opacity:0.44999998807907104;mix-blend-mode:passthrough"><g><path d="M944.6263749023437,610.3592858520508Q944.6263749023437,610.6152858520508,944.6137749023437,610.8708858520508Q944.6011749023437,611.1265858520508,944.5760749023437,611.3812858520508Q944.5509749023438,611.6359858520508,944.5133749023438,611.8891858520508Q944.4757749023438,612.1423858520508,944.4258749023437,612.3934858520507Q944.3758749023438,612.6444858520508,944.3135749023437,612.8927858520508Q944.2513749023437,613.1410858520508,944.1769749023438,613.3859858520508Q944.1026749023438,613.6308858520508,944.0163749023437,613.8718858520508Q943.9300749023438,614.1128858520508,943.8320749023437,614.3493858520508Q943.7339749023438,614.5858858520508,943.6244749023438,614.8172858520508Q943.5149749023437,615.0486858520508,943.3941749023437,615.2743858520507Q943.2734749023438,615.5000858520508,943.1417749023437,615.7196858520508Q943.0100749023437,615.9391858520507,942.8677749023437,616.1519858520508Q942.7254749023438,616.3648858520507,942.5728749023438,616.5703858520508Q942.4202749023437,616.7759858520508,942.2577749023437,616.9738858520508Q942.0952749023437,617.1717858520508,941.9231749023437,617.3613858520508Q941.7511749023438,617.5510858520507,941.5700749023438,617.7320858520508Q941.3889749023438,617.9129858520507,941.1991749023438,618.0848858520508Q941.0093749023438,618.2567858520508,940.8112749023437,618.4191858520508Q940.6132749023437,618.5815858520508,940.4075749023438,618.7340858520508Q940.2017749023438,618.8864858520508,939.9887749023437,619.0286858520508Q939.7757749023438,619.1708858520508,939.5560749023438,619.3024858520508Q939.3363749023438,619.4340858520508,939.1104749023438,619.5547858520508Q938.8845749023437,619.6753858520508,938.6529749023438,619.7848858520508Q938.4214749023438,619.8942858520508,938.1847749023437,619.9922858520508Q937.9480749023437,620.0901858520508,937.7069749023437,620.1763858520508Q937.4657749023437,620.2626858520508,937.2205749023437,620.3369858520508Q936.9754749023438,620.4112858520508,936.7269749023437,620.4734858520508Q936.4784749023438,620.5356858520507,936.2272749023438,620.5855858520508Q935.9760749023437,620.6354858520508,935.7226749023438,620.6730858520508Q935.4692749023437,620.7105858520508,935.2143749023437,620.7356858520508Q934.9593749023437,620.7607858520507,934.7035749023438,620.7733858520508Q934.4476749023438,620.7858858520508,934.1915749023437,620.7858858520508Q933.9353749023437,620.7858858520508,933.6795649023437,620.7733858520508Q933.4237049023437,620.7607858520507,933.1687649023437,620.7356858520508Q932.9138149023438,620.7105858520508,932.6604649023437,620.6730858520508Q932.4070449023437,620.6354858520508,932.1558249023437,620.5855858520508Q931.9046049023437,620.5356858520507,931.6561249023438,620.4734858520508Q931.4075949023437,620.4112858520508,931.1624749023438,620.3369858520508Q930.9173549023437,620.2626858520508,930.6761449023437,620.1763858520508Q930.4349949023438,620.0901858520508,930.1983049023438,619.9922858520508Q929.9616749023437,619.8942858520508,929.7301049023438,619.7848858520508Q929.4985349023437,619.6753858520508,929.2726449023437,619.5547858520508Q929.0466949023438,619.4340858520508,928.8270249023437,619.3024858520508Q928.6072949023437,619.1708858520508,928.3942849023438,619.0286858520508Q928.1813349023438,618.8864858520508,927.9755849023437,618.7340858520508Q927.7698349023437,618.5815858520508,927.5717749023438,618.4191858520508Q927.3737749023437,618.2567858520508,927.1839649023437,618.0848858520508Q926.9942049023438,617.9129858520507,926.8130449023438,617.7320858520508Q926.6318949023438,617.5510858520507,926.4598949023438,617.3613858520508Q926.2878449023437,617.1717858520508,926.1253649023438,616.9738858520508Q925.9628249023438,616.7759858520508,925.8102449023437,616.5703858520508Q925.6576549023438,616.3648858520507,925.5153149023438,616.1519858520508Q925.3730449023437,615.9391858520507,925.2413349023437,615.7196858520508Q925.1096149023438,615.5000858520508,924.9888949023438,615.2743858520507Q924.8681649023438,615.0486858520508,924.7586049023438,614.8172858520508Q924.6491089023438,614.5858858520508,924.5510869023437,614.3493858520508Q924.4530639023437,614.1128858520508,924.3667599023438,613.8718858520508Q924.2804569023438,613.6308858520508,924.2061159023438,613.3859858520508Q924.1317139023438,613.1410858520508,924.0694579023437,612.8927858520508Q924.0072629023438,612.6444858520508,923.9572749023438,612.3934858520507Q923.9072879023438,612.1423858520508,923.8696899023438,611.8891858520508Q923.8320923023438,611.6359858520508,923.8070068023437,611.3812858520508Q923.7819214023438,611.1265858520508,923.7693481023438,610.8708858520508Q923.7567749023438,610.6152858520508,923.7567749023438,610.3592858520508Q923.7567749023438,610.1033858520508,923.7693481023438,609.8477258520508Q923.7819214023438,609.5920458520508,923.8070068023437,609.3372858520507Q923.8320923023438,609.0825858520508,923.8696899023438,608.8294158520508Q923.9072879023438,608.5762358520508,923.9572749023438,608.3252058520508Q924.0072629023438,608.0741658520508,924.0694579023437,607.8258758520508Q924.1317139023438,607.5775858520508,924.2061159023438,607.3325858520508Q924.2804569023438,607.0876558520508,924.3667599023438,606.8466858520508Q924.4530639023437,606.6056558520507,924.5510869023437,606.3692058520508Q924.6491089023438,606.1327558520508,924.7586049023438,605.9013758520508Q924.8681649023438,605.6699858520508,924.9888949023438,605.4442258520507Q925.1096149023438,605.2185158520508,925.2413349023437,604.9989658520508Q925.3730449023437,604.7794258520507,925.5153149023438,604.5665958520508Q925.6576549023438,604.3537658520507,925.8102449023437,604.1482058520508Q925.9628249023438,603.9425758520508,926.1253649023438,603.7446958520508Q926.2878449023437,603.5468858520508,926.4598949023438,603.3571858520507Q926.6318949023438,603.1675458520508,926.8130449023438,602.9865758520508Q926.9942049023438,602.8056058520508,927.1839649023437,602.6336758520508Q927.3737749023437,602.4617958520507,927.5717749023438,602.2994458520508Q927.7698349023437,602.1370358520508,927.9755849023437,601.9845658520508Q928.1813349023438,601.8320958520508,928.3942849023438,601.6898858520508Q928.6072949023437,601.5476758520508,928.8270249023437,601.4160858520507Q929.0466949023438,601.2844958520508,929.2726449023437,601.1638258520508Q929.4985349023437,601.0431558520507,929.7301049023438,600.9337858520507Q929.9616749023437,600.8242878520508,930.1983049023438,600.7263868520508Q930.4349949023438,600.6284258520508,930.6761449023437,600.5421828520508Q930.9173549023437,600.4559398520507,931.1624749023438,600.3816608520508Q931.4075949023437,600.3073808520508,931.6561249023438,600.2451858520508Q931.9046049023437,600.1829908520508,932.1558249023437,600.1330028520508Q932.4070449023437,600.0830768520508,932.6604649023437,600.0455398520508Q932.9138149023438,600.0080032520508,933.1687649023437,599.9829177520508Q933.4237049023437,599.9578323520508,933.6795649023437,599.9452590520508Q933.9353749023437,599.9326858520508,934.1915749023437,599.9326858520508Q934.4476749023438,599.9326858520508,934.7035749023438,599.9452590520508Q934.9593749023437,599.9578323520508,935.2143749023437,599.9829177520508Q935.4692749023437,600.0080032520508,935.7226749023438,600.0455398520508Q935.9760749023437,600.0830768520508,936.2272749023438,600.1330028520508Q936.4784749023438,600.1829908520508,936.7269749023437,600.2451858520508Q936.9754749023438,600.3073808520508,937.2205749023437,600.3816608520508Q937.4657749023437,600.4559398520507,937.7069749023437,600.5421828520508Q937.9480749023437,600.6284258520508,938.1847749023437,600.7263868520508Q938.4214749023438,600.8242878520508,938.6529749023438,600.9337858520507Q938.8845749023437,601.0431558520507,939.1104749023438,601.1638258520508Q939.3363749023438,601.2844958520508,939.5560749023438,601.4160858520507Q939.7757749023438,601.5476758520508,939.9887749023437,601.6898858520508Q940.2017749023438,601.8320958520508,940.4075749023438,601.9845658520508Q940.6132749023437,602.1370358520508,940.8112749023437,602.2994458520508Q941.0093749023438,602.4617958520507,941.1991749023438,602.6336758520508Q941.3889749023438,602.8056058520508,941.5700749023438,602.9865758520508Q941.7511749023438,603.1675458520508,941.9231749023437,603.3571858520507Q942.0952749023437,603.5468858520508,942.2577749023437,603.7446958520508Q942.4202749023437,603.9425758520508,942.5728749023438,604.1482058520508Q942.7254749023438,604.3537658520507,942.8677749023437,604.5665958520508Q943.0100749023437,604.7794258520507,943.1417749023437,604.9989658520508Q943.2734749023438,605.2185158520508,943.3941749023437,605.4442258520507Q943.5149749023437,605.6699858520508,943.6244749023438,605.9013758520508Q943.7339749023438,606.1327558520508,943.8320749023437,606.3692058520508Q943.9300749023438,606.6056558520507,944.0163749023437,606.8466858520508Q944.1026749023438,607.0876558520508,944.1769749023438,607.3325858520508Q944.2513749023437,607.5775858520508,944.3135749023437,607.8258758520508Q944.3758749023438,608.0741658520508,944.4258749023437,608.3252058520508Q944.4757749023438,608.5762358520508,944.5133749023438,608.8294158520508Q944.5509749023438,609.0825858520508,944.5760749023437,609.3372858520507Q944.6011749023437,609.5920458520508,944.6137749023437,609.8477258520508Q944.6263749023437,610.1033858520508,944.6263749023437,610.3592858520508Z" fill="#CFDAE6" fill-opacity="1"/></g></g><g style="mix-blend-mode:passthrough"><g><path d="M1015.4935840820312,549.8317321606445L960.5853840820313,566.4367021606446L960.0819700820313,564.7721021606445L1014.9901840820312,548.1670608606445L1015.4935840820312,549.8317321606445ZM1016.1118840820312,548.9993971606445Q1016.1118840820312,549.0850901606445,1016.0951840820312,549.1691321606445Q1016.0784840820313,549.2531821606445,1016.0456840820312,549.3323421606445Q1016.0128840820313,549.4115021606445,1015.9652840820313,549.4827321606446Q1015.9176840820312,549.5539621606446,1015.8570840820313,549.6145721606446Q1015.7964840820313,549.6751821606446,1015.7252840820313,549.7227821606446Q1015.6539840820312,549.7703921606445,1015.5748840820313,549.8031721606445Q1015.4956840820313,549.8359421606445,1015.4116840820312,549.8526721606445Q1015.3275840820313,549.8693921606446,1015.2418840820312,549.8693921606446Q1015.1561840820312,549.8693921606446,1015.0721840820313,549.8526721606445Q1014.9881840820312,549.8359421606445,1014.9089840820312,549.8031721606445Q1014.8297840820312,549.7703921606445,1014.7585840820312,549.7227821606446Q1014.6872840820313,549.6751821606446,1014.6266840820313,549.6145721606446Q1014.5661840820312,549.5539621606446,1014.5184840820313,549.4827321606446Q1014.4708840820313,549.4115021606445,1014.4381840820313,549.3323421606445Q1014.4053840820312,549.2531821606445,1014.3885840820312,549.1691321606445Q1014.3718840820312,549.0850901606445,1014.3718840820312,548.9993971606445Q1014.3718840820312,548.9137041606446,1014.3885840820312,548.8296581606445Q1014.4053840820312,548.7456131606446,1014.4381840820313,548.6664501606446Q1014.4708840820313,548.5872881606446,1014.5185840820312,548.5160601606445Q1014.5661840820312,548.4448321606445,1014.6266840820313,548.3842241606445Q1014.6872840820313,548.3236161606445,1014.7585840820312,548.2760081606446Q1014.8297840820312,548.2284011606446,1014.9089840820312,548.1956252606445Q1014.9881840820312,548.1628494606446,1015.0721840820313,548.1461257606445Q1015.1561840820312,548.1294021606445,1015.2418840820312,548.1294021606445Q1015.3275840820313,548.1294021606445,1015.4116840820312,548.1461257606445Q1015.4956840820313,548.1628494606446,1015.5748840820313,548.1956252606445Q1015.6539840820312,548.2284011606446,1015.7252840820313,548.2760081606446Q1015.7964840820313,548.3236161606445,1015.8570840820313,548.3842241606445Q1015.9176840820312,548.4448321606445,1015.9652840820313,548.5160601606445Q1016.0128840820313,548.5872881606446,1016.0456840820312,548.6664501606446Q1016.0784840820313,548.7456131606446,1016.0951840820312,548.8296581606445Q1016.1118840820312,548.9137041606446,1016.1118840820312,548.9993971606445ZM961.2036740820313,565.6044021606446Q961.2036740820313,565.6901021606445,961.1869540820312,565.7741021606446Q961.1702240820313,565.8582021606445,961.1374540820312,565.9373021606445Q961.1046140820313,566.0165021606446,961.0570640820313,566.0877021606445Q961.0094640820313,566.1590021606445,960.9488540820313,566.2196021606445Q960.8882440820313,566.2802021606445,960.8170140820313,566.3278021606445Q960.7457240820313,566.3754021606445,960.6665640820313,566.4082021606446Q960.5874040820313,566.4410021606445,960.5034140820312,566.4577021606445Q960.4193720820313,566.4744021606446,960.3336790820313,566.4744021606446Q960.2479860820313,566.4744021606446,960.1639400820312,566.4577021606445Q960.0798950820313,566.4410021606445,960.0007320820313,566.4082021606446Q959.9215700820313,566.3754021606445,959.8503420820313,566.3278021606445Q959.7790530820313,566.2802021606445,959.7185060820312,566.2196021606445Q959.6578980820312,566.1590021606445,959.6102900820313,566.0877021606445Q959.5626830820313,566.0165021606446,959.5299071820313,565.9373021606445Q959.4970702820312,565.8582021606445,959.4803466820313,565.7741021606446Q959.4636840820312,565.6901021606445,959.4636840820312,565.6044021606446Q959.4636840820312,565.5187021606446,959.4803466820313,565.4347021606445Q959.4970702820312,565.3506021606445,959.5299071820313,565.2715021606446Q959.5626830820313,565.1923021606445,959.6102900820313,565.1211021606446Q959.6578980820312,565.0498021606445,959.7185060820312,564.9892021606445Q959.7790530820313,564.9286021606446,959.8503420820313,564.8810021606446Q959.9215700820313,564.8334021606445,960.0007320820313,564.8006021606445Q960.0798950820313,564.7678021606446,960.1639400820312,564.7511021606446Q960.2479860820313,564.7344021606445,960.3336790820313,564.7344021606445Q960.4193720820313,564.7344021606445,960.5034140820312,564.7511021606446Q960.5874040820313,564.7678021606446,960.6665640820313,564.8006021606445Q960.7457240820313,564.8334021606445,960.8170140820313,564.8810021606446Q960.8882440820313,564.9286021606446,960.9488540820313,564.9892021606445Q961.0094640820313,565.0498021606445,961.0570640820313,565.1211021606446Q961.1046140820313,565.1923021606445,961.1374540820312,565.2715021606446Q961.1702240820313,565.3506021606445,961.1869540820312,565.4347021606445Q961.2036740820313,565.5187021606446,961.2036740820313,565.6044021606446Z" fill="#CFDAE6" fill-opacity="1"/></g></g><g style="opacity:0.699999988079071;mix-blend-mode:passthrough"><g><path d="M903.8830567851562,546.6660232481445L904.5717197851562,546.9047318481445Q904.6043697851562,546.9160838481446,904.6342797851562,546.9335398481445Q904.6641197851562,546.9510578481445,904.6899997851563,546.9740678481445Q904.7158797851563,546.9970168481445,904.7367597851562,547.0246048481446Q904.7576297851563,547.0521928481445,904.7727097851563,547.0833208481446Q904.7878397851563,547.1144488481445,904.7965697851563,547.1479568481445Q904.8052997851562,547.1814648481445,904.8073697851562,547.2160108481445Q904.8093897851562,547.2504958481445,904.8046297851563,547.2847978481445Q904.7999297851562,547.3190998481446,904.7885697851563,547.3517528481445Q904.7772797851562,547.3844678481445,904.7597697851562,547.4143138481445Q904.7422497851562,547.4441608481445,904.7192997851563,547.4700398481446Q904.6962897851563,547.4959178481446,904.6686997851563,547.5167918481445Q904.6411097851562,547.5377278481445,904.6099897851562,547.5528028481446Q904.5788597851563,547.5678788481446,904.5453497851563,547.5766678481446Q904.5118997851563,547.5853958481446,904.4773597851563,547.5874098481445Q904.4428097851562,547.5894848481445,904.4085087851563,547.5847248481446Q904.3742677851562,547.5799638481445,904.3415527851563,547.5686718481445L903.6528927851563,547.3299028481446L903.8830567851562,546.6660232481445ZM906.6375697851563,547.6209178481446L908.0148297851563,548.0983368481445Q908.0475497851562,548.1096868481445,908.0773897851562,548.1272068481445Q908.1072397851563,548.1446568481446,908.1331197851563,548.1676668481446Q908.1589997851562,548.1906768481446,908.1798697851563,548.2182068481445Q908.2007397851562,548.2457968481446,908.2158797851563,548.2769868481445Q908.2309597851563,548.3081168481446,908.2396897851562,548.3415568481445Q908.2484097851562,548.3750668481446,908.2504897851562,548.4096168481445Q908.2524997851563,548.4441568481445,908.2477997851563,548.4783968481445Q908.2430397851563,548.5127068481445,908.2316897851563,548.5454168481446Q908.2203997851562,548.5780668481445,908.2028797851563,548.6079168481446Q908.1853597851563,548.6378268481445,908.1624097851562,548.6637068481446Q908.1393997851562,548.6895168481445,908.1118197851563,548.7103968481446Q908.0842297851563,548.7313268481445,908.0530997851563,548.7464068481445Q908.0219697851562,548.7615468481446,907.9884597851562,548.7702668481445Q907.9550197851562,548.7789968481445,907.9204697851562,548.7810768481445Q907.8859297851562,548.7830868481445,907.8516197851562,548.7783268481445Q907.8173797851563,548.7736268481445,907.7846697851562,548.7622768481446L906.4074097851562,548.2847968481445Q906.3746997851563,548.2735068481445,906.3448497851563,548.2559868481445Q906.3149997851563,548.2385368481446,906.2891197851562,548.2155268481446Q906.2632397851562,548.1925168481446,906.2423697851563,548.1649268481445Q906.2214997851562,548.1373368481445,906.2064197851563,548.1062068481446Q906.1912797851562,548.0750768481445,906.1825597851563,548.0416368481445Q906.1738297851563,548.0081268481446,906.1717497851563,547.9735768481445Q906.1697397851563,547.9390368481445,906.1744997851563,547.9047968481445Q906.1791997851562,547.8704868481445,906.1905497851562,547.8377768481446Q906.2018397851563,547.8051268481445,906.2193597851563,547.7752168481445Q906.2368797851562,547.7453668481445,906.2598297851563,547.7194868481446Q906.2828397851563,547.6936768481445,906.3104297851562,547.6727368481445Q906.3380097851563,547.6518668481446,906.3691397851562,547.6367878481445Q906.4002697851563,547.6216508481446,906.4337797851563,547.6129228481445Q906.4672197851562,547.6041948481445,906.5017697851563,547.6021198481445Q906.5363197851563,547.6001048481445,906.5706197851563,547.6048658481445Q906.6048597851562,547.6095658481445,906.6375697851563,547.6209178481446ZM910.0806897851562,548.8145168481445L911.4579497851563,549.2919968481445Q911.4906597851563,549.3032868481446,911.5205097851563,549.3208068481446Q911.5503497851563,549.3383268481446,911.5762297851562,549.3612768481445Q911.6021097851562,549.3842868481445,911.6229897851563,549.4118768481445Q911.6438597851562,549.4394568481446,911.6589997851562,549.4705868481445Q911.6740697851562,549.5017168481445,911.6827997851562,549.5352268481445Q911.6915897851562,549.5686768481445,911.6935997851563,549.6032168481445Q911.6956197851563,549.6377668481446,911.6909197851562,549.6720668481445Q911.6861597851563,549.7063068481445,911.6747997851562,549.7390168481445Q911.6635097851563,549.7717368481445,911.6459997851563,549.8015868481446Q911.6285397851562,549.8314268481445,911.6055297851562,549.8573068481445Q911.5825197851563,549.8831868481445,911.5549297851562,549.9040568481445Q911.5273397851563,549.9249368481445,911.4962197851562,549.9400668481445Q911.4650897851562,549.9551468481445,911.4316397851562,549.9638768481445Q911.3981297851562,549.9726068481446,911.3635897851563,549.9746768481446Q911.3290397851563,549.9766968481446,911.2947997851562,549.9719968481445Q911.2604997851563,549.9672268481445,911.2277797851563,549.9558768481445L909.8505297851563,549.4784668481445Q909.8178697851563,549.4671068481446,909.7880297851563,549.4495968481446Q909.7581197851563,549.4321368481445,909.7322997851562,549.4091268481445Q909.7064197851563,549.3861768481445,909.6855497851562,549.3585868481446Q909.6646097851562,549.3309968481445,909.6495397851562,549.2998768481445Q909.6343997851562,549.2687468481446,909.6256697851562,549.2352368481445Q909.6169397851562,549.2017268481445,909.6149297851563,549.1671868481445Q909.6128497851563,549.1326368481446,909.6176097851562,549.0983968481445Q909.6223097851563,549.0640968481446,909.6336697851563,549.0314368481445Q909.6450197851563,548.9987268481445,909.6624797851563,548.9688768481445Q909.6799897851563,548.9390368481445,909.7029997851563,548.9131568481446Q909.7259497851562,548.8872768481446,909.7535397851562,548.8663968481445Q909.7811297851563,548.8454668481445,909.8122597851562,548.8303868481445Q909.8433797851562,548.8153168481446,909.8768897851562,548.8065268481446Q909.9103997851563,548.7977968481446,909.9448897851563,548.7957868481445Q909.9794297851563,548.7937068481446,910.0137297851562,548.7984668481446Q910.0480297851562,548.8031668481445,910.0806897851562,548.8145168481445ZM913.5238297851563,550.0081268481446L914.9010297851562,550.4856068481446Q914.9337297851563,550.4969568481446,914.9636297851563,550.5144168481445Q914.9934297851562,550.5319268481445,915.0193297851563,550.5548768481445Q915.0452297851563,550.5778868481445,915.0661297851562,550.6054768481446Q915.0869297851563,550.6330668481445,915.1021297851562,550.6641968481446Q915.1172297851563,550.6953168481446,915.1259297851562,550.7288268481445Q915.1346297851562,550.7622768481446,915.1368297851562,550.7968168481445Q915.1387297851562,550.8313668481445,915.1340297851563,550.8656668481445Q915.1292297851562,550.8999668481446,915.1180297851563,550.9326268481445Q915.1066297851562,550.9653368481445,915.0891297851563,550.9951868481445Q915.0716297851562,551.0250368481445,915.0486297851562,551.0509068481446Q915.0256297851563,551.0767868481445,914.9980297851563,551.0976668481445Q914.9704297851563,551.1185368481446,914.9393297851562,551.1336768481445Q914.9082297851562,551.1487468481446,914.8747297851562,551.1574768481445Q914.8412297851562,551.1662668481446,914.8067297851562,551.1682768481445Q914.7721297851563,551.1702968481445,914.7378297851562,551.1655968481446Q914.7036297851563,551.1608368481445,914.6709297851562,551.1495468481445L913.2936997851563,550.6720668481445Q913.2609897851562,550.6607168481445,913.2311397851563,550.6432568481446Q913.2012897851563,550.6257368481446,913.1754197851562,550.6027868481445Q913.1495397851562,550.5797768481445,913.1286597851563,550.5521968481445Q913.1077297851563,550.5246068481446,913.0926497851563,550.4934768481445Q913.0775097851563,550.4623468481445,913.0687897851562,550.4288368481446Q913.0600597851562,550.3953968481445,913.0580397851562,550.3608468481445Q913.0559697851562,550.3262968481446,913.0607297851562,550.2919968481445Q913.0654897851563,550.2576968481445,913.0767797851563,550.2250468481445Q913.0881297851563,550.1923268481445,913.1056497851563,550.1624868481446Q913.1231097851562,550.1326368481446,913.1461197851562,550.1067568481445Q913.1690697851562,550.0808768481445,913.1966597851563,550.0600068481446Q913.2242397851562,550.0391268481445,913.2553697851563,550.0239968481445Q913.2865597851562,550.0089168481445,913.3200097851562,550.0001868481445Q913.3535197851562,549.9913968481445,913.3880597851562,549.9893868481445Q913.4226297851562,549.9873768481445,913.4568297851563,549.9920768481445Q913.4911297851562,549.9968368481445,913.5238297851563,550.0081268481446ZM916.9670297851562,551.2017868481445L918.3442297851562,551.6792068481445Q918.3769297851562,551.6905568481445,918.4067297851562,551.7080168481446Q918.4366297851562,551.7255368481445,918.4624297851562,551.7485468481445Q918.4883297851562,551.7714968481446,918.5092297851562,551.7990768481445Q918.5301297851563,551.8266668481446,918.5452297851563,551.8577968481445Q918.5603297851562,551.8889868481446,918.5690297851562,551.9224368481446Q918.5779297851562,551.9559368481446,918.5798297851562,551.9904868481445Q918.5818297851563,552.0250368481445,918.5771297851562,552.0592768481446Q918.5724297851563,552.0935768481445,918.5610297851563,552.1262268481445Q918.5497297851563,552.1589468481445,918.5322297851562,552.1887868481446Q918.5147297851563,552.2186368481446,918.4917297851563,552.2445168481445Q918.4687297851563,552.2703968481445,918.4412297851562,552.2912668481446Q918.4136297851562,552.3122068481446,918.3824297851562,552.3272768481445Q918.3513297851563,552.3424168481446,918.3178297851563,552.3511468481445Q918.2843297851563,552.3598668481445,918.2498297851563,552.3618868481445Q918.2152297851562,552.3639568481445,918.1810297851563,552.3591968481445Q918.1467297851563,552.3544368481446,918.1140297851563,552.3431468481446L916.7367297851563,551.8656668481445Q916.7041297851563,551.8543768481445,916.6742297851563,551.8368568481445Q916.6443297851563,551.8193468481445,916.6185297851563,551.7963968481446Q916.5926297851563,551.7733868481446,916.5717297851562,551.7457968481446Q916.5508297851562,551.7182068481445,916.5357297851563,551.6870768481446Q916.5206297851563,551.6559568481446,916.5119297851562,551.6224468481445Q916.5031297851563,551.5889968481446,916.5011297851562,551.5544468481445Q916.4991297851562,551.5199068481445,916.5038297851562,551.4856068481446Q916.5085297851563,551.4513668481445,916.5199297851563,551.4186468481445Q916.5312297851563,551.3859368481445,916.5487297851563,551.3560868481445Q916.5662297851562,551.3262368481445,916.5892297851562,551.3003568481445Q916.6122297851563,551.2744868481445,916.6397297851563,551.2536068481445Q916.6673297851562,551.2327368481446,916.6985297851562,551.2175968481446Q916.7296297851562,551.2025268481445,916.7631297851563,551.1937968481445Q916.7966297851563,551.1850668481445,916.8311297851562,551.1829868481445Q916.8657297851563,551.1809768481445,916.8999297851562,551.1856768481446Q916.9342297851563,551.1904368481445,916.9670297851562,551.2017868481445ZM920.4100297851562,552.3953968481445L921.7873297851562,552.8728068481445Q921.8200297851563,552.8841668481446,921.8498297851562,552.9016768481446Q921.8797297851562,552.9191368481445,921.9056297851563,552.9421468481445Q921.9314297851563,552.9650968481445,921.9523297851563,552.9927468481445Q921.9732297851563,553.0203368481446,921.9883297851562,553.0514568481445Q922.0034297851563,553.0825868481445,922.0122297851563,553.1160368481445Q922.0209297851562,553.1495468481445,922.0229297851563,553.1840868481445Q922.0250297851562,553.2186368481446,922.0202297851563,553.2528768481445Q922.0155297851562,553.2871768481446,922.0042297851562,553.3198968481445Q921.9928297851562,553.3525468481446,921.9753297851563,553.3824568481446Q921.9578297851563,553.4122968481445,921.9349297851562,553.4381768481445Q921.9119297851563,553.4639968481446,921.8843297851563,553.4849368481446Q921.8567297851563,553.5058068481445,921.8256297851563,553.5208768481446Q921.7944297851562,553.5360168481445,921.7609297851562,553.5447468481445Q921.7275297851562,553.5534768481446,921.6929297851563,553.5555468481446Q921.6584297851563,553.5575668481446,921.6241297851562,553.5528068481445Q921.5898297851562,553.5481068481446,921.5571297851562,553.5367468481445L920.1799297851562,553.0593368481445Q920.1472297851562,553.0479768481446,920.1173297851562,553.0304668481446Q920.0875297851562,553.0130068481445,920.0616297851562,552.9899968481445Q920.0357297851563,552.9669868481445,920.0148297851563,552.9393968481445Q919.9940297851563,552.9118068481446,919.9789297851562,552.8806868481445Q919.9637297851563,552.8495568481445,919.9550297851563,552.8161068481445Q919.9463297851562,552.7825968481445,919.9442297851563,552.7480568481445Q919.9422297851562,552.7135068481446,919.9469297851563,552.6792668481445Q919.9518297851563,552.6449668481446,919.9630297851562,552.6122468481445Q919.9743297851562,552.5795968481445,919.9919297851562,552.5496868481446Q920.0093297851563,552.5198468481445,920.0323297851562,552.4939668481445Q920.0553297851562,552.4681468481446,920.0829297851562,552.4472168481445Q920.1105297851562,552.4263368481445,920.1416297851563,552.4112668481446Q920.1727297851562,552.3961268481445,920.2062297851562,552.3873968481445Q920.2397297851562,552.3786668481446,920.2742297851562,552.3765968481446Q920.3088297851563,552.3745768481446,920.3431297851563,552.3793368481445Q920.3774297851562,552.3840368481445,920.4100297851562,552.3953968481445ZM923.8532297851563,553.5889968481446L925.2304297851563,554.0664768481445Q925.2631297851563,554.0777668481445,925.2930297851562,554.0952868481445Q925.3228297851563,554.1127968481445,925.3487297851563,554.1357468481445Q925.3746297851562,554.1587568481445,925.3954297851562,554.1863468481446Q925.4164297851562,554.2139368481445,925.4314297851563,554.2450668481446Q925.4465297851563,554.2761868481446,925.4554297851563,554.3096968481445Q925.4640297851563,554.3431468481446,925.4661297851562,554.3776968481445Q925.4681297851563,554.4122368481445,925.4634297851562,554.4465368481445Q925.4586297851563,554.4807768481445,925.4473297851563,554.5134968481445Q925.4360297851563,554.5462068481445,925.4185297851562,554.5760568481445Q925.4010297851562,554.6059068481445,925.3780297851563,554.6317868481445Q925.3550297851563,554.6576568481445,925.3274297851563,554.6785368481445Q925.2998297851562,554.6994068481446,925.2687297851562,554.7145468481446Q925.2376297851563,554.7296268481446,925.2041297851563,554.7383468481445Q925.1706297851563,554.7470768481445,925.1360297851562,554.7491568481445Q925.1015297851562,554.7511668481445,925.0672297851562,554.7464668481446Q925.0329297851563,554.7417068481445,925.0003297851563,554.7303568481445L923.6230297851563,554.2529368481445Q923.5903297851562,554.2415868481445,923.5605297851563,554.2240668481445Q923.5306297851563,554.2066068481445,923.5047297851562,554.1835968481445Q923.4789297851562,554.1606568481445,923.4580297851562,554.1330668481445Q923.4371297851562,554.1054768481446,923.4220297851563,554.0743468481445Q923.4070297851563,554.0432168481445,923.3981297851562,554.0097168481445Q923.3894297851563,553.9762068481446,923.3874297851562,553.9416568481445Q923.3853297851563,553.9071168481445,923.3900297851562,553.8728668481446Q923.3948297851563,553.8385668481445,923.4061297851563,553.8058568481446Q923.4175297851563,553.7731968481445,923.4350297851563,553.7433568481446Q923.4524297851563,553.7135068481446,923.4754297851563,553.6876268481445Q923.4984297851563,553.6617468481445,923.5260297851562,553.6408768481446Q923.5536297851562,553.6199368481446,923.5847297851562,553.6048668481445Q923.6159297851563,553.5897868481445,923.6493297851563,553.5809968481445Q923.6828297851563,553.5722768481445,923.7174297851562,553.5702568481445Q923.7519297851562,553.5681868481445,923.7862297851563,553.5729468481445Q923.8205297851563,553.5777068481445,923.8532297851563,553.5889968481446ZM927.2963297851562,554.7826568481445L928.6735297851562,555.2600768481445Q928.7062297851562,555.2714268481445,928.7361297851562,555.2888868481446Q928.7659297851562,555.3064068481445,928.7918297851562,555.3294168481445Q928.8177297851563,555.3523668481446,928.8386297851563,555.3799468481445Q928.8595297851563,555.4075368481446,928.8746297851562,555.4386668481445Q928.8897297851563,555.4697968481445,928.8984297851563,555.5033068481446Q928.9071297851563,555.5367468481445,928.9092297851563,555.5712968481446Q928.9112297851563,555.6058468481446,928.9065297851563,555.6401468481446Q928.9018297851562,555.6744468481445,928.8904297851562,555.7070968481445Q928.8791297851562,555.7398168481445,928.8616297851562,555.7696568481446Q928.8441297851563,555.7995068481446,928.8211297851562,555.8253868481445Q928.7981297851562,555.8512668481445,928.7705297851562,555.8721368481446Q928.7430297851563,555.8930168481445,928.7118297851563,555.9081468481445Q928.6807297851562,555.9232268481445,928.6472297851562,555.9320168481445Q928.6137297851562,555.9407468481445,928.5792297851563,555.9427568481445Q928.5446297851563,555.9448368481445,928.5104297851562,555.9400668481445Q928.4761297851562,555.9353068481445,928.4435297851562,555.9240168481446L927.0661297851562,555.4465368481445Q927.0334297851563,555.4351868481446,927.0036297851562,555.4177368481445Q926.9737297851563,555.4002168481445,926.9478297851563,555.3772068481445Q926.9220297851563,555.3542568481446,926.9011297851563,555.3266668481446Q926.8802297851563,555.2990768481445,926.8651297851562,555.2679568481445Q926.8500297851563,555.2368268481446,926.8413297851563,555.2033168481445Q926.8326297851562,555.1698668481446,926.8305297851563,555.1353268481446Q926.8284297851562,555.1007768481445,926.8332297851563,555.0664768481445Q926.8379297851562,555.0322368481445,926.8492297851562,554.9995168481445Q926.8606297851562,554.9668068481445,926.8781297851563,554.9369568481445Q926.8956297851563,554.9071168481445,926.9186297851562,554.8812368481446Q926.9415297851563,554.8553568481445,926.9691297851563,554.8344768481445Q926.9967297851563,554.8136068481446,927.0278297851562,554.7984668481446Q927.0591297851563,554.7833968481445,927.0925297851562,554.7746068481446Q927.1259297851562,554.7658768481446,927.1606297851563,554.7638668481445Q927.1950297851563,554.7617868481445,927.2293297851562,554.7665468481446Q927.2636297851562,554.7713068481445,927.2963297851562,554.7826568481445ZM930.7394297851563,555.9762668481445L932.1167297851563,556.4536868481446Q932.1494297851563,556.4650368481446,932.1792297851563,556.4825468481446Q932.2091297851563,556.5000068481445,932.2349297851563,556.5230168481445Q932.2608297851563,556.5459668481445,932.2817297851562,556.5735568481446Q932.3026297851562,556.6011468481445,932.3177297851563,556.6322668481446Q932.3328297851563,556.6634568481445,932.3415297851562,556.6969568481445Q932.3503297851563,556.7304568481445,932.3523297851563,556.7649568481445Q932.3544297851563,556.7995568481446,932.3496297851563,556.8338568481445Q932.3449297851563,556.8679568481446,932.3335297851562,556.9006568481445Q932.3222297851562,556.9334568481445,932.3047297851563,556.9633568481445Q932.2872297851562,556.9931568481445,932.2643297851563,557.0189568481445Q932.2413297851563,557.0448568481445,932.2137297851563,557.0657568481445Q932.1861297851563,557.0866568481446,932.1549297851562,557.1018568481445Q932.1238297851562,557.1168568481445,932.0903297851562,557.1256568481446Q932.0568297851562,557.1342568481446,932.0223297851562,557.1364568481446Q931.9878297851562,557.1383568481446,931.9535297851562,557.1336568481445Q931.9192297851563,557.1289568481445,931.8865297851562,557.1176568481445L930.5093297851563,556.6401468481446Q930.4766297851562,556.6288568481446,930.4467297851562,556.6113368481446Q930.4168297851562,556.5938168481446,930.3910297851562,556.5708668481445Q930.3651297851562,556.5478568481445,930.3442297851562,556.5202668481445Q930.3233297851563,556.4926868481446,930.3082297851563,556.4615568481445Q930.2931297851562,556.4304268481445,930.2844297851562,556.3969168481445Q930.2756297851563,556.3634768481445,930.2737297851562,556.3289268481445Q930.2716297851563,556.2943768481446,930.2763297851562,556.2600768481445Q930.2810297851563,556.2258368481446,930.2925297851563,556.1931268481445Q930.3037297851563,556.1604068481445,930.3212297851562,556.1305568481446Q930.3387297851563,556.1007168481445,930.3617297851563,556.0748368481445Q930.3847297851562,556.0489568481445,930.4123297851562,556.0280868481445Q930.4399297851562,556.0072068481445,930.4710297851562,555.9921368481446Q930.5021297851563,555.9769968481445,930.5356297851563,555.9682668481445Q930.5691297851563,555.9595368481446,930.6036297851563,555.9574668481446Q930.6382297851562,555.9554568481445,930.6724297851563,555.9601468481445Q930.7067297851562,555.9649168481445,930.7394297851563,555.9762668481445ZM934.1825297851562,557.1698568481445L935.5598297851562,557.6472568481445Q935.5925297851562,557.6586568481446,935.6223297851562,557.6762568481445Q935.6523297851562,557.6936568481445,935.6781297851562,557.7166568481446Q935.7039297851562,557.7395568481445,935.7248297851562,557.7672568481445Q935.7457297851563,557.7948568481445,935.7608297851563,557.8258568481446Q935.7759297851562,557.8571568481445,935.7847297851563,557.8905568481446Q935.7934297851563,557.9240568481446,935.7954297851562,557.9585568481446Q935.7975297851563,557.9931568481445,935.7927297851562,558.0274568481445Q935.7880297851563,558.0617568481446,935.7767297851562,558.0943568481446Q935.7654297851562,558.1270568481445,935.7478297851562,558.1568568481446Q935.7303297851563,558.1867568481446,935.7074297851563,558.2125568481446Q935.6844297851562,558.2384568481446,935.6568297851562,558.2594568481445Q935.6292297851562,558.2802568481445,935.5981297851563,558.2954568481446Q935.5669297851563,558.3104568481446,935.5335297851562,558.3192568481445Q935.5000297851562,558.3280568481446,935.4654297851563,558.3300568481445Q935.4309297851562,558.3319568481445,935.3966297851563,558.3272568481445Q935.3623297851562,558.3225568481446,935.3296297851563,558.3111568481445L933.9524297851563,557.8338568481445Q933.9197297851563,557.8225568481446,933.8898297851563,557.8049568481446Q933.8600297851563,557.7874568481445,933.8341297851563,557.7644568481445Q933.8082297851563,557.7415568481446,933.7874297851563,557.7138568481446Q933.7665297851563,557.6862568481446,933.7514297851562,557.6552568481445Q933.7363297851563,557.6240568481445,933.7275297851562,557.5905568481445Q933.7188297851562,557.5570568481445,933.7167297851563,557.5224568481445Q933.7148297851562,557.4879568481446,933.7195297851563,557.4536568481445Q933.7242297851562,557.4193568481445,933.7355297851562,557.3867568481445Q933.7468297851563,557.3540568481445,933.7643297851563,557.3241568481445Q933.7818297851562,557.2943568481445,933.8048297851562,557.2684568481445Q933.8279297851562,557.2426568481445,933.8554297851563,557.2216568481446Q933.8830297851563,557.2008568481446,933.9141297851562,557.1856568481445Q933.9452297851562,557.1705568481445,933.9787297851562,557.1618568481446Q934.0122297851563,557.1530568481445,934.0467297851562,557.1510568481445Q934.0813297851563,557.1491568481446,934.1156297851562,557.1538568481445Q934.1498297851563,557.1585568481445,934.1825297851562,557.1698568481445ZM937.6257297851563,558.3634568481446L938.3143297851562,558.6021568481445L938.3055297851563,558.6275568481445Q938.2968297851562,558.6527568481446,938.2806297851563,558.6994568481446Q938.2644297851563,558.7460568481446,938.2433297851562,558.8070568481445Q938.2221297851562,558.8681568481445,938.1992297851563,558.9342568481445Q938.1763297851562,559.0001568481446,938.1552297851563,559.0611568481445Q938.1340297851563,559.1221568481445,938.1178297851562,559.1688568481445Q938.1017297851563,559.2155568481445,938.0929297851562,559.2409568481445Q938.0841297851563,559.2661568481445,938.0841297851563,559.2661568481445L937.3955297851562,559.0274568481445Q937.3628297851562,559.0161568481445,937.3330297851562,558.9985568481445Q937.3031297851562,558.9810568481445,937.2773297851562,558.9580568481446Q937.2514297851562,558.9350568481445,937.2305297851562,558.9074568481445Q937.2096297851563,558.8798568481445,937.1946297851563,558.8488568481446Q937.1794297851562,558.8176568481446,937.1706297851563,558.7841568481446Q937.1619297851562,558.7506568481446,937.1599297851562,558.7161568481446Q937.1578297851563,558.6815568481445,937.1626297851562,558.6472568481445Q937.1673297851562,558.6130568481445,937.1786297851562,558.5803568481446Q937.1900297851563,558.5476568481446,937.2076297851562,558.5177568481446Q937.2250297851563,558.4879568481446,937.2479297851562,558.4620568481446Q937.2709297851562,558.4361568481445,937.2985297851562,558.4152568481445Q937.3261297851562,558.3944568481445,937.3572297851563,558.3792568481446Q937.3884297851563,558.3641568481445,937.4218297851562,558.3554568481445Q937.4554297851563,558.3468568481445,937.4899297851563,558.3446568481445Q937.5244297851563,558.3427568481445,937.5587297851563,558.3474568481445Q937.5930297851562,558.3521568481445,937.6257297851563,558.3634568481446ZM904.1179807851563,546.9979938481446Q904.1179807851563,547.0324168481445,904.1112667851562,547.0662308481445Q904.1045527851562,547.1000438481445,904.0913697851563,547.1319048481446Q904.0781857851563,547.1637648481445,904.0590207851562,547.1924518481445Q904.0398557851563,547.2210768481445,904.0155027851563,547.2454908481445Q903.9910887851562,547.2698438481445,903.9624637851563,547.2890088481445Q903.9337767851563,547.3081128481446,903.9019167851562,547.3213578481445Q903.8701167851563,547.3345408481446,903.8363037851562,547.3412548481446Q903.8024897851562,547.3479688481445,903.7680057851562,547.3479688481445Q903.7335207851562,547.3479688481445,903.6997067851562,547.3412548481446Q903.6658937851563,547.3345408481446,903.6340327851563,547.3213578481445Q903.6022337851563,547.3081128481446,903.5735477851563,547.2890088481445Q903.5448607851563,547.2698438481445,903.5205077851563,547.2454908481445Q903.4961547851562,547.2210768481445,903.4769897851562,547.1924518481445Q903.4578246851562,547.1637648481445,903.4446410851563,547.1319048481446Q903.4314574851562,547.1000438481445,903.4247436551562,547.0662308481445Q903.4180297851562,547.0324168481445,903.4180297851562,546.9979938481446Q903.4180297851562,546.9635088481446,903.4247436551562,546.9296948481445Q903.4314574851562,546.8958818481445,903.4446410851563,546.8640208481445Q903.4578246851562,546.8321608481446,903.4769897851562,546.8035358481445Q903.4961547851562,546.7748488481445,903.5205077851563,546.7504958481445Q903.5448607851563,546.7260818481445,903.5735477851563,546.7069778481446Q903.6022337851563,546.6878128481445,903.6340327851563,546.6746292481446Q903.6658937851563,546.6614456481445,903.6997067851562,546.6546707181445Q903.7335207851562,546.6479568481445,903.7680057851562,546.6479568481445Q903.8024897851562,546.6479568481445,903.8363037851562,546.6546707181445Q903.8701167851563,546.6614456481445,903.9019167851562,546.6746292481446Q903.9337767851563,546.6878128481445,903.9624637851563,546.7069778481446Q903.9910887851562,546.7260818481445,904.0155027851563,546.7504958481445Q904.0398557851563,546.7748488481445,904.0590207851562,546.8035358481445Q904.0781857851563,546.8321608481446,904.0913697851563,546.8640208481445Q904.1045527851562,546.8958818481445,904.1112667851562,546.9296948481445Q904.1179807851563,546.9635088481446,904.1179807851563,546.9979938481446ZM938.5492297851563,558.9342568481445Q938.5492297851563,558.9685568481445,938.5425297851563,559.0025568481445Q938.5358297851562,559.0363568481446,938.5226297851563,559.0681568481446Q938.5094297851563,559.0999568481445,938.4902297851562,559.1286568481445Q938.4711297851562,559.1572568481446,938.4467297851562,559.1817568481446Q938.4223297851563,559.2059568481445,938.3937297851562,559.2251568481445Q938.3650297851563,559.2442568481446,938.3332297851563,559.2575568481445Q938.3013297851562,559.2706568481445,938.2675297851563,559.2774568481445Q938.2337297851562,559.2841568481446,938.1992297851563,559.2841568481446Q938.1647297851563,559.2841568481446,938.1310297851562,559.2774568481445Q938.0971297851562,559.2706568481445,938.0653297851562,559.2575568481445Q938.0334297851563,559.2442568481446,938.0049297851563,559.2251568481445Q937.9761297851562,559.2059568481445,937.9518297851563,559.1817568481446Q937.9273297851563,559.1572568481446,937.9082297851562,559.1286568481445Q937.8890297851563,559.0999568481445,937.8759297851562,559.0681568481446Q937.8627297851563,559.0363568481446,937.8559297851563,559.0025568481445Q937.8492297851562,558.9685568481445,937.8492297851562,558.9342568481445Q937.8492297851562,558.8996568481446,937.8559297851563,558.8659568481445Q937.8627297851563,558.8320568481445,937.8759297851562,558.8001568481445Q937.8890297851563,558.7683568481445,937.9082297851562,558.7396568481445Q937.9273297851563,558.7110568481445,937.9518297851563,558.6867568481446Q937.9761297851562,558.6622568481446,938.0049297851563,558.6431568481445Q938.0334297851563,558.6239568481445,938.0653297851562,558.6107568481445Q938.0971297851562,558.5975568481446,938.1310297851562,558.5908568481445Q938.1647297851563,558.5841568481445,938.1992297851563,558.5841568481445Q938.2337297851562,558.5841568481445,938.2675297851563,558.5908568481445Q938.3013297851562,558.5975568481446,938.3332297851563,558.6107568481445Q938.3650297851563,558.6239568481445,938.3937297851562,558.6431568481445Q938.4223297851563,558.6622568481446,938.4467297851562,558.6867568481446Q938.4711297851562,558.7110568481445,938.4902297851562,558.7396568481445Q938.5094297851563,558.7683568481445,938.5226297851563,558.8001568481445Q938.5358297851562,558.8320568481445,938.5425297851563,558.8659568481445Q938.5492297851563,558.8996568481446,938.5492297851563,558.9342568481445Z" fill="#E0B4B7" fill-opacity="1"/></g></g><g style="mix-blend-mode:passthrough"><g><path d="M939.4224243632813,601.5859763793945L939.7600098632812,600.9892763793945Q939.7770388632813,600.9591763793945,939.7996218632812,600.9329763793945Q939.8222048632813,600.9067763793945,939.8494868632813,600.8853763793945Q939.8767698632812,600.8640763793945,939.9076538632812,600.8485763793946Q939.9385378632812,600.8329763793945,939.9718628632812,600.8236763793946Q940.0052488632813,600.8144763793946,940.0397338632813,600.8118763793946Q940.0742798632813,600.8093763793945,940.1085818632813,600.8135763793946Q940.1429438632813,600.8177763793946,940.1757808632813,600.8285763793946Q940.2086788632812,600.8394763793946,940.2387698632813,600.8564763793945Q940.2689208632812,600.8734763793946,940.2951048632813,600.8960763793946Q940.3213498632813,600.9186763793946,940.3426518632813,600.9459763793946Q940.3639528632813,600.9731763793945,940.3795148632812,601.0040763793945Q940.3950848632812,601.0349763793945,940.4043548632812,601.0683763793945Q940.4136348632812,601.1016763793946,940.4161948632812,601.1361763793946Q940.4187648632812,601.1706763793945,940.4145548632813,601.2050763793945Q940.4103348632813,601.2393763793946,940.3994748632813,601.2722763793945Q940.3886148632813,601.3051763793945,940.3715818632812,601.3352763793945L940.0340578632813,601.9319763793945L939.4224243632813,601.5859763793945ZM940.7727048632812,599.1990763793946L941.4478148632812,598.0056763793946Q941.4649048632813,597.9755763793945,941.4874848632812,597.9492763793945Q941.5100748632813,597.9230763793945,941.5373548632813,597.9017763793945Q941.5645748632812,597.8804763793945,941.5954548632812,597.8648763793946Q941.6264048632812,597.8493763793945,941.6597248632812,597.8400763793945Q941.6930548632813,597.8308763793946,941.7276048632813,597.8282763793945Q941.7620848632813,597.8256763793945,941.7964448632813,597.8298763793946Q941.8308148632813,597.8341763793945,941.8636448632813,597.8449763793946Q941.8964848632812,597.8557763793946,941.9266348632813,597.8728763793945Q941.9567248632812,597.8898763793945,941.9829748632812,597.9124763793945Q942.0091548632812,597.9350763793946,942.0305148632813,597.9622763793946Q942.0518148632813,597.9895763793945,942.0673848632813,598.0204763793945Q942.0829448632812,598.0513763793946,942.0921648632813,598.0847763793945Q942.1014448632812,598.1180763793946,942.1040048632813,598.1525763793945Q942.1065648632813,598.1870763793945,942.1023548632812,598.2214763793945Q942.0981448632813,598.2557763793945,942.0873448632813,598.2886763793945Q942.0764748632813,598.3214763793945,942.0594448632812,598.3516763793946L941.3842748632812,599.5450763793946Q941.3672448632813,599.5751763793945,941.3446648632812,599.6013763793945Q941.3220848632812,599.6276763793945,941.2947948632813,599.6489763793945Q941.2675748632812,599.6702763793945,941.2366348632812,599.6857763793945Q941.2057448632812,599.7013763793946,941.1724248632812,599.7106763793945Q941.1390948632812,599.7198763793946,941.1045548632812,599.7224763793945Q941.0700648632812,599.7250763793945,941.0357048632812,599.7207763793946Q941.0013448632812,599.7165763793945,940.9685048632813,599.7057763793945Q940.9356048632812,599.6949763793946,940.9055148632813,599.6778763793945Q940.8753648632812,599.6608763793945,940.8491848632813,599.6382763793945Q940.8229348632813,599.6156763793945,940.8016348632813,599.5883763793945Q940.7803348632813,599.5611763793945,940.7647748632812,599.5302763793945Q940.7492048632813,599.4993763793946,940.7399248632812,599.4659763793945Q940.7307148632813,599.4326763793945,940.7281448632813,599.3981763793945Q940.7255848632813,599.3636763793945,940.7297948632812,599.3292763793945Q940.7340048632813,599.2949763793945,940.7448148632812,599.2620763793946Q940.7556748632812,599.2291763793945,940.7727048632812,599.1990763793946ZM942.4605748632813,596.2154763793945L943.1356848632812,595.0220763793945Q943.1527148632813,594.9918763793945,943.1752948632812,594.9656763793945Q943.1978748632813,594.9394763793945,943.2251548632812,594.9181763793945Q943.2524448632812,594.8968763793945,943.2833248632812,594.8812763793945Q943.3142048632812,594.8656763793946,943.3475948632813,594.8564763793945Q943.3809248632813,594.8471763793946,943.4154048632812,594.8446763793945Q943.4499548632813,594.8420763793945,943.4842548632812,594.8462763793946Q943.5186148632813,594.8504763793945,943.5515148632812,594.8613763793945Q943.5843548632813,594.8721763793945,943.6145048632812,594.8891763793945Q943.6445948632812,594.9062763793945,943.6707748632813,594.9288763793945Q943.6970248632813,594.9514763793945,943.7183248632813,594.9786763793945Q943.7396248632813,595.0059763793945,943.7551848632812,595.0368763793946Q943.7708148632812,595.0677763793946,943.7800248632813,595.1010763793945Q943.7893048632812,595.1344763793945,943.7918748632812,595.1689763793945Q943.7944348632813,595.2034763793945,943.7902248632812,595.2377763793945Q943.7860148632813,595.2721763793945,943.7751448632813,595.3050763793946Q943.7643448632813,595.3378763793945,943.7472548632812,595.3679763793946L943.0721448632812,596.5614763793945Q943.0551148632812,596.5915763793945,943.0325348632813,596.6177763793945Q943.0099448632812,596.6439763793945,942.9826648632812,596.6652763793945Q942.9553848632812,596.6865763793945,942.9244948632812,596.7021763793946Q942.8936148632813,596.7177763793945,942.8602248632812,596.7269763793945Q942.8269048632812,596.7362763793946,942.7924148632812,596.7388763793946Q942.7578748632812,596.7413763793945,942.7235748632812,596.7371763793946Q942.6892048632812,596.7329763793946,942.6563148632813,596.7221763793946Q942.6234748632812,596.7112763793946,942.5933848632812,596.6942763793945Q942.5632348632812,596.6772763793946,942.5370448632813,596.6546763793946Q942.5108048632812,596.6320763793946,942.4895048632812,596.6047763793945Q942.4682048632812,596.5774763793945,942.4526348632812,596.5465763793945Q942.4370748632813,596.5156763793946,942.4277948632813,596.4823763793945Q942.4185148632813,596.4490763793946,942.4159548632813,596.4144763793945Q942.4133948632813,596.3799763793945,942.4176048632812,596.3456763793945Q942.4218148632813,596.3112763793945,942.4326748632812,596.2784763793945Q942.4434848632812,596.2455763793945,942.4605748632813,596.2154763793945ZM944.1483748632812,593.2318763793945L944.8235448632812,592.0383763793945Q944.8405748632813,592.0082763793945,944.8631548632812,591.9820763793946Q944.8857448632813,591.9558763793946,944.9130248632813,591.9345763793946Q944.9402448632812,591.9132763793946,944.9711948632812,591.8976763793945Q945.0020748632812,591.8820763793946,945.0354048632812,591.8728763793945Q945.0687248632812,591.8635763793945,945.1032748632813,591.8609763793945Q945.1377548632812,591.8584763793946,945.1721148632812,591.8626763793945Q945.2064848632813,591.8668763793945,945.2393148632813,591.8776763793945Q945.2722148632813,591.8885763793945,945.3023048632813,591.9055763793946Q945.3324548632812,591.9225763793945,945.3586448632813,591.9451763793945Q945.3848848632813,591.9677763793945,945.4061848632813,591.9950763793945Q945.4274948632813,592.0223763793945,945.4430548632813,592.0532763793946Q945.4586148632812,592.0841763793945,945.4678948632812,592.1174763793945Q945.4771148632813,592.1507763793945,945.4796748632813,592.1853763793945Q945.4822348632813,592.2198763793946,945.4780248632812,592.2541763793945Q945.4738148632813,592.2885763793945,945.4630148632813,592.3213763793946Q945.4521448632812,592.3542763793945,945.4351148632812,592.3843763793946L944.7600048632812,593.5778763793945Q944.7429848632812,593.6079763793946,944.7203348632812,593.6341763793945Q944.6977548632813,593.6603763793945,944.6705348632812,593.6816763793945Q944.6432448632812,593.7029763793945,944.6123648632813,593.7185763793946Q944.5814248632812,593.7341763793945,944.5480948632812,593.7433763793945Q944.5147748632812,593.7526763793945,944.4802248632813,593.7551763793946Q944.4457348632812,593.7577763793945,944.4113748632813,593.7535763793945Q944.3770148632813,593.7493763793946,944.3441748632813,593.7384763793946Q944.3113448632813,593.7276763793946,944.2811848632813,593.7106763793945Q944.2510948632812,593.6935763793946,944.2248548632813,593.6709763793946Q944.1986648632812,593.6483763793946,944.1773648632812,593.6211763793946Q944.1560048632813,593.5938763793945,944.1404448632812,593.5629763793945Q944.1248748632812,593.5320763793945,944.1156648632813,593.4987763793945Q944.1063848632813,593.4653763793946,944.1038248632813,593.4308763793945Q944.1012548632813,593.3963763793945,944.1054648632812,593.3620763793946Q944.1096848632812,593.3276763793946,944.1204848632813,593.2948763793945Q944.1313448632812,593.2619763793946,944.1483748632812,593.2318763793945ZM945.8362448632812,590.2481763793945L946.5113548632812,589.0547763793945Q946.5283848632813,589.0246763793946,946.5509648632813,588.9984763793946Q946.5735448632812,588.9721763793946,946.6008348632813,588.9508763793946Q946.6281148632812,588.9295763793946,946.6589948632812,588.9140763793945Q946.6899448632812,588.8984763793945,946.7232648632812,588.8891763793945Q946.7565948632813,588.8799763793945,946.7910748632812,588.8773763793945Q946.8256248632813,588.8747763793946,946.8599848632813,588.8790763793945Q946.8942848632812,588.8832763793945,946.9271848632812,588.8940763793945Q946.9600248632812,588.9048763793945,946.9901748632813,588.9219763793946Q947.0202648632812,588.9389763793945,947.0465048632813,588.9615763793945Q947.0726948632813,588.9841763793945,947.0939948632813,589.0114763793945Q947.1152948632813,589.0386763793945,947.1309248632813,589.0695763793946Q947.1464848632812,589.1004763793945,947.1557048632812,589.1338763793946Q947.1649748632813,589.1671763793945,947.1675448632813,589.2016763793945Q947.1701048632813,589.2361763793946,947.1658948632812,589.2705763793946Q947.1616848632813,589.3048763793945,947.1508148632812,589.3377763793945Q947.1400148632813,589.3706763793946,947.1229848632812,589.4007763793945L946.4478148632812,590.5941763793945Q946.4307848632812,590.6242763793946,946.4082048632813,590.6505763793946Q946.3856248632812,590.6767763793945,946.3583348632812,590.6980763793945Q946.3310548632812,590.7193763793946,946.3001748632812,590.7349763793945Q946.2692848632812,590.7504763793945,946.2359648632812,590.7597763793946Q946.2025748632813,590.7689763793945,946.1680948632812,590.7715763793946Q946.1335448632813,590.7741763793945,946.0992448632812,590.7699763793945Q946.0648848632812,590.7656763793946,946.0320448632813,590.7548763793945Q945.9991448632812,590.7440763793945,945.9690548632813,590.7269763793945Q945.9389048632812,590.7099763793946,945.9127148632813,590.6873763793945Q945.8864748632813,590.6647763793945,945.8651748632813,590.6375763793945Q945.8438748632813,590.6102763793946,945.8283048632812,590.5793763793945Q945.8127448632813,590.5484763793945,945.8034648632813,590.5150763793945Q945.7942548632813,590.4817763793945,945.7916248632813,590.4472763793946Q945.7890648632813,590.4127763793946,945.7932748632812,590.3783763793946Q945.7974848632813,590.3440763793946,945.8083448632813,590.3111763793945Q945.8192148632812,590.2783763793946,945.8362448632812,590.2481763793945ZM947.5240448632812,587.2645763793945L948.1992148632812,586.0711763793945Q948.2162448632813,586.0409763793946,948.2388348632812,586.0147763793946Q948.2614148632813,585.9885763793945,948.2886948632813,585.9672763793945Q948.3159748632812,585.9459763793946,948.3468648632812,585.9303763793945Q948.3777448632812,585.9147763793945,948.4110748632812,585.9055763793946Q948.4444548632813,585.8962763793945,948.4789448632813,585.8937763793946Q948.5134248632812,585.8911763793946,948.5477948632813,585.8953763793945Q948.5821548632813,585.8995763793945,948.6149948632813,585.9104763793945Q948.6478848632812,585.9212763793945,948.6779748632813,585.9383763793945Q948.7081348632812,585.9553763793946,948.7343148632813,585.9779763793945Q948.7605548632813,586.0005763793945,948.7818648632813,586.0277763793945Q948.8031648632813,586.0550763793946,948.8187248632812,586.0859763793945Q948.8342848632813,586.1168763793945,948.8435648632812,586.1501763793946Q948.8527848632813,586.1835763793945,948.8553448632813,586.2180763793946Q948.8579748632812,586.2525763793946,948.8536948632812,586.2869763793946Q948.8494848632813,586.3212763793945,948.8386848632813,586.3541763793945Q948.8278148632812,586.3869763793946,948.8107948632812,586.4170763793945L948.1356848632812,587.6105763793945Q948.1186548632812,587.6406763793946,948.0960648632813,587.6668763793946Q948.0734248632813,587.6930763793945,948.0462048632812,587.7144763793946Q948.0189248632812,587.7357763793946,947.9880348632812,587.7512763793945Q947.9571548632813,587.7668763793945,947.9237648632812,587.7761763793945Q947.8904448632812,587.7853763793945,947.8558948632813,587.7879763793945Q947.8214148632812,587.7904763793945,947.7870448632813,587.7862763793945Q947.7527448632812,587.7820763793945,947.7198448632812,587.7712763793945Q947.6870148632812,587.7603763793945,947.6568648632813,587.7433763793945Q947.6267748632813,587.7263763793945,947.6005248632813,587.7037763793945Q947.5743448632812,587.6811763793945,947.5530348632813,587.6538763793945Q947.5317348632813,587.6266763793946,947.5161148632812,587.5957763793946Q947.5005448632812,587.5648763793945,947.4913348632813,587.5314763793946Q947.4820548632813,587.4981763793945,947.4794948632813,587.4636763793945Q947.4769248632813,587.4291763793946,947.4811448632812,587.3947763793946Q947.4853548632813,587.3604763793945,947.4962148632812,587.3275763793945Q947.5070148632813,587.2946763793946,947.5240448632812,587.2645763793945ZM949.2119148632812,584.2809763793946L949.8870348632812,583.0874763793945Q949.9040348632813,583.0573763793946,949.9266348632813,583.0311763793945Q949.9492348632813,583.0049763793945,949.9765348632812,582.9836763793945Q950.0038348632812,582.9623763793945,950.0347348632813,582.9467763793946Q950.0656348632813,582.9311763793945,950.0989348632812,582.9219763793946Q950.1322348632813,582.9126763793945,950.1668348632812,582.9101763793946Q950.2013348632812,582.9075763793945,950.2356348632812,582.9117763793945Q950.2700348632812,582.9159763793946,950.3028348632813,582.9268763793946Q950.3357348632812,582.9376763793946,950.3658348632813,582.9546763793945Q950.3959348632812,582.9717763793946,950.4221348632813,582.9943763793946Q950.4484348632812,583.0168763793945,950.4697348632812,583.0441763793946Q950.4910348632812,583.0714763793945,950.5065348632812,583.1023763793945Q950.5221348632813,583.1332763793945,950.5314348632812,583.1665763793945Q950.5406348632813,583.1999763793946,950.5432348632812,583.2344763793946Q950.5457348632813,583.2689763793945,950.5415348632813,583.3032763793946Q950.5373348632812,583.3376763793946,950.5265348632812,583.3704763793945Q950.5156348632812,583.4033763793946,950.4986348632813,583.4334763793945L949.8235348632812,584.6269763793945Q949.8064348632812,584.6570763793945,949.7838348632813,584.6832763793946Q949.7613348632813,584.7094763793946,949.7340348632813,584.7307763793946Q949.7068348632813,584.7520763793946,949.6758348632812,584.7676763793945Q949.6449348632813,584.7832763793946,949.6116348632812,584.7924763793945Q949.5782348632813,584.8017763793945,949.5437348632812,584.8043763793945Q949.5092348632812,584.8068763793946,949.4749348632813,584.8026763793945Q949.4405348632813,584.7984763793945,949.4077348632812,584.7876763793945Q949.3748148632812,584.7767763793945,949.3447248632813,584.7597763793946Q949.3145748632812,584.7426763793945,949.2883948632813,584.7201763793945Q949.2621448632813,584.6975763793945,949.2408448632813,584.6702763793945Q949.2195448632813,584.6429763793946,949.2039748632812,584.6120763793946Q949.1884148632812,584.5811763793945,949.1791348632812,584.5478763793946Q949.1699248632813,584.5144763793945,949.1673548632813,584.4799763793945Q949.1647948632813,584.4454763793946,949.1690048632812,584.4111763793945Q949.1732148632813,584.3767763793945,949.1840248632813,584.3439763793946Q949.1948848632812,584.3110763793945,949.2119148632812,584.2809763793946ZM950.8997348632812,581.2973763793946L951.5749348632812,580.1038763793945Q951.5919348632813,580.0737763793945,951.6145348632813,580.0475763793945Q951.6371348632813,580.0213763793945,951.6643348632813,580.0000763793945Q951.6916348632813,579.9786763793945,951.7225348632812,579.9631763793946Q951.7534348632812,579.9475763793945,951.7867348632813,579.9382763793946Q951.8201348632813,579.9290763793946,951.8546348632813,579.9264763793946Q951.8891348632812,579.9239763793945,951.9234348632813,579.9281763793946Q951.9578348632813,579.9323763793946,951.9907348632812,579.9431763793946Q952.0235348632813,579.9540763793946,952.0536348632812,579.9710763793945Q952.0838348632813,579.9880763793946,952.1100348632813,580.0106763793946Q952.1362348632813,580.0332763793946,952.1575348632813,580.0605763793945Q952.1788348632813,580.0877763793945,952.1944348632812,580.1186763793945Q952.2100348632813,580.1495763793945,952.2192348632813,580.1829763793945Q952.2285348632812,580.2162763793946,952.2310348632813,580.2507763793946Q952.2336348632813,580.2853763793945,952.2294348632812,580.3196763793945Q952.2252348632812,580.3539763793946,952.2143348632812,580.3868763793945Q952.2035348632812,580.4197763793945,952.1865348632813,580.4498763793945L951.5113348632813,581.6432763793945Q951.4943348632812,581.6734763793945,951.4717348632812,581.6996763793945Q951.4491348632813,581.7258763793945,951.4218348632812,581.7471763793945Q951.3946348632812,581.7684763793945,951.3637348632813,581.7840763793945Q951.3328348632813,581.7996763793946,951.2994348632812,581.8088763793945Q951.2661348632812,581.8181763793946,951.2316348632812,581.8206763793945Q951.1971348632812,581.8232763793945,951.1627348632812,581.8190763793946Q951.1284348632812,581.8148763793945,951.0955348632813,581.8039763793945Q951.0626348632812,581.7931763793945,951.0325348632813,581.7761763793945Q951.0024348632812,581.7590763793945,950.9762348632812,581.7364763793945Q950.9500348632813,581.7138763793945,950.9287348632813,581.6866763793945Q950.9074348632812,581.6593763793945,950.8918348632812,581.6284763793946Q950.8762348632813,581.5975763793946,950.8670348632812,581.5642763793945Q950.8577348632813,581.5308763793945,950.8551348632813,581.4963763793945Q950.8526348632812,581.4618763793945,950.8568348632813,581.4275763793945Q950.8610348632812,581.3931763793945,950.8718348632813,581.3602763793946Q950.8827348632813,581.3274763793945,950.8997348632812,581.2973763793946ZM952.5876348632812,578.3136763793946L953.2627348632813,577.1202763793946Q953.2797348632813,577.0901763793945,953.3023348632812,577.0638763793945Q953.3249348632812,577.0376763793945,953.3522348632813,577.0163763793945Q953.3794348632813,576.9950763793945,953.4103348632813,576.9794763793946Q953.4412348632812,576.9639763793946,953.4746348632813,576.9546763793945Q953.5079348632812,576.9454763793946,953.5424348632813,576.9428763793945Q953.5769348632813,576.9402763793945,953.6113348632813,576.9444763793946Q953.6456348632812,576.9487763793945,953.6785348632812,576.9595763793945Q953.7114348632813,576.9703763793946,953.7415348632812,576.9874763793945Q953.7716348632813,577.0044763793945,953.7978348632812,577.0270763793945Q953.8240348632812,577.0496763793946,953.8453348632812,577.0769763793945Q953.8666348632812,577.1041763793945,953.8822348632813,577.1350763793945Q953.8978348632812,577.1659763793946,953.9070348632813,577.1993763793945Q953.9163348632812,577.2326763793945,953.9189348632813,577.2671763793945Q953.9214348632812,577.3016763793945,953.9172348632812,577.3360763793945Q953.9130348632813,577.3703763793945,953.9022348632813,577.4032763793946Q953.8913348632813,577.4360763793945,953.8743348632812,577.4662763793946L953.1992348632813,578.6596763793946Q953.1821348632812,578.6897763793945,953.1595348632812,578.7159763793945Q953.1369348632812,578.7422763793945,953.1097348632812,578.7635763793945Q953.0824348632813,578.7848763793945,953.0515348632813,578.8004763793946Q953.0206348632812,578.8159763793946,952.9873348632813,578.8252763793945Q952.9539348632812,578.8344763793946,952.9194348632813,578.8370763793945Q952.8849348632813,578.8396763793945,952.8506348632812,578.8353763793946Q952.8162348632812,578.8311763793945,952.7833348632812,578.8203763793945Q952.7505348632812,578.8095763793946,952.7204348632813,578.7924763793945Q952.6902348632813,578.7754763793945,952.6640348632812,578.7528763793945Q952.6378348632812,578.7302763793946,952.6165348632812,578.7029763793945Q952.5952348632812,578.6757763793945,952.5796348632813,578.6448763793945Q952.5640348632812,578.6139763793946,952.5548348632813,578.5805763793945Q952.5455348632812,578.5472763793946,952.5430348632813,578.5127763793945Q952.5404348632812,578.4782763793945,952.5446348632812,578.4438763793945Q952.5488348632813,578.4095763793945,952.5597348632813,578.3766763793946Q952.5705348632813,578.3438763793945,952.5876348632812,578.3136763793946ZM954.2754348632812,575.3300863793945L954.9505348632813,574.1366063793945Q954.9676348632812,574.1065163793945,954.9902348632812,574.0802663793945Q955.0127348632813,574.0540863793946,955.0400348632812,574.0327863793946Q955.0673348632813,574.0114863793946,955.0982348632813,573.9958563793946Q955.1291348632813,573.9802963793945,955.1624348632813,573.9710763793945Q955.1958348632812,573.9617963793945,955.2303348632812,573.9592363793945Q955.2648348632813,573.9566763793945,955.2991348632812,573.9608863793945Q955.3335348632812,573.9650963793945,955.3663348632813,573.9759563793946Q955.3992348632812,573.9867663793946,955.4293348632813,574.0038563793945Q955.4594348632812,574.0208863793945,955.4857348632812,574.0434663793945Q955.5119348632812,574.0660463793945,955.5332348632812,574.0932663793945Q955.5545348632812,574.1205563793945,955.5701348632813,574.1514363793946Q955.5856348632813,574.1823763793946,955.5949348632812,574.2157063793945Q955.6041348632813,574.2490263793945,955.6067348632813,574.2835763793945Q955.6093348632812,574.3180663793945,955.6051348632813,574.3524263793945Q955.6008348632813,574.3867863793945,955.5900348632813,574.4196263793946Q955.5792348632813,574.4525263793945,955.5621348632812,574.4826163793946L954.8870348632812,575.6760763793945Q954.8700348632813,575.7061763793945,954.8474348632813,575.7323763793945Q954.8248348632812,575.7585763793945,954.7975348632813,575.7798763793945Q954.7703348632813,575.8011763793945,954.7394348632813,575.8167763793946Q954.7085348632812,575.8323763793945,954.6751348632813,575.8415763793945Q954.6418348632812,575.8508763793945,954.6073348632813,575.8534763793946Q954.5727348632812,575.8559763793945,954.5384348632813,575.8517763793946Q954.5041348632813,575.8475763793946,954.4712348632812,575.8367763793946Q954.4383348632813,575.8259763793945,954.4082348632812,575.8088763793945Q954.3781348632813,575.7917763793945,954.3519348632813,575.7692763793946Q954.3257348632812,575.7466763793946,954.3043348632813,575.7193763793945Q954.2830348632813,575.6921763793945,954.2675348632813,575.6611763793945Q954.2519348632812,575.6302763793946,954.2426348632813,575.5969963793946Q954.2334348632812,575.5636063793945,954.2308348632813,575.5291263793945Q954.2283348632812,575.4946363793945,954.2325348632812,575.4602763793945Q954.2367348632813,575.4259063793945,954.2475348632812,575.3930763793945Q954.2584348632812,575.3601763793945,954.2754348632812,575.3300863793945ZM955.9632348632813,572.3464463793945L956.6384348632813,571.1530263793945Q956.6554348632812,571.1228763793945,956.6780348632813,571.0966863793946Q956.7006348632813,571.0704463793945,956.7279348632812,571.0491363793946Q956.7551348632812,571.0278363793946,956.7860348632812,571.0122763793945Q956.8169348632813,570.9967163793946,956.8503348632812,570.9874363793946Q956.8836348632813,570.9781563793945,956.9181348632812,570.9755963793946Q956.9526348632812,570.9730263793946,956.9870348632812,570.9772463793945Q957.0213348632813,570.9815163793945,957.0542348632813,570.9923163793945Q957.0870348632812,571.0031863793945,957.1172348632813,571.0202063793945Q957.1473348632812,571.0372363793946,957.1735348632812,571.0598263793945Q957.1997348632813,571.0824063793946,957.2210348632813,571.1096863793945Q957.2423348632813,571.1369063793945,957.2579348632812,571.1678563793945Q957.2735348632813,571.1987363793945,957.2827348632812,571.2320663793945Q957.2920348632813,571.2654463793946,957.2945348632812,571.2999363793946Q957.2971348632813,571.3344163793945,957.2929348632813,571.3687863793946Q957.2887348632812,571.4031463793946,957.2778348632812,571.4359863793945Q957.2670348632812,571.4688763793945,957.2500348632813,571.4989663793946L956.5748348632812,572.6924563793946Q956.5578348632813,572.7225463793945,956.5352348632813,572.7487863793946Q956.5126348632813,572.7749663793945,956.4854348632813,572.7962763793945Q956.4581348632812,572.8175763793945,956.4272348632812,572.8331963793945Q956.3963348632813,572.8487663793945,956.3629348632812,572.8579763793946Q956.3296348632813,572.8672563793946,956.2951348632812,572.8698163793945Q956.2606348632812,572.8723863793946,956.2262348632812,572.8681763793945Q956.1919348632813,572.8639563793945,956.1590348632812,572.8530963793945Q956.1262348632813,572.8422963793945,956.0960348632813,572.8252663793945Q956.0659348632812,572.8082363793945,956.0397348632813,572.7855863793945Q956.0135348632813,572.7630063793945,955.9922348632813,572.7357863793945Q955.9709348632813,572.7085063793945,955.9553348632812,572.6776163793945Q955.9397348632813,572.6466763793945,955.9305348632812,572.6133463793946Q955.9212348632813,572.5800263793946,955.9187348632812,572.5454763793946Q955.9161348632813,572.5109963793946,955.9203348632813,572.4766263793945Q955.9245348632812,572.4422663793945,955.9354348632812,572.4094363793945Q955.9462348632812,572.3765963793945,955.9632348632813,572.3464463793945ZM957.6511348632813,569.3627963793946L958.3262348632812,568.1693763793945Q958.3433348632813,568.1392263793946,958.3658348632813,568.1130463793945Q958.3884348632813,568.0867963793945,958.4157348632813,568.0654963793945Q958.4430348632812,568.0441963793945,958.4739348632812,568.0286363793946Q958.5048348632813,568.0130663793946,958.5381348632812,568.0037963793945Q958.5715348632813,567.9945763793945,958.6060348632813,567.9920163793945Q958.6405348632812,567.9894463793945,958.6748348632813,567.9936563793946Q958.7092348632813,567.9978763793945,958.7420348632812,568.0086763793945Q958.7749348632813,568.0195363793945,958.8050348632812,568.0365663793946Q958.8351348632813,568.0535963793945,958.8613348632813,568.0761763793945Q958.8876348632813,568.0987663793945,958.9089348632813,568.1260463793946Q958.9302348632813,568.1533263793946,958.9457348632812,568.1842163793946Q958.9613348632813,568.2150963793945,958.9706348632812,568.2484863793945Q958.9798348632812,568.2818063793945,958.9824348632812,568.3162963793945Q958.9850348632813,568.3508363793945,958.9807348632812,568.3851363793946Q958.9765348632812,568.4195063793945,958.9657348632812,568.4523363793945Q958.9549348632812,568.4852363793946,958.9378348632813,568.5153263793945L958.2627348632813,569.7088063793946Q958.2456348632812,569.7388963793945,958.2231348632813,569.7651463793945Q958.2005348632813,569.7913263793945,958.1732348632812,569.8126263793945Q958.1459348632812,569.8339963793945,958.1150348632813,569.8495563793946Q958.0841348632813,569.8651163793945,958.0508348632812,569.8743363793945Q958.0174348632812,569.8836163793945,957.9829348632812,569.8861763793946Q957.9484348632812,569.8887363793946,957.9141348632812,569.8845263793945Q957.8797348632812,569.8803163793946,957.8469348632813,569.8695163793946Q957.8140348632812,569.8586463793945,957.7839348632813,569.8416263793945Q957.7538348632812,569.8245963793945,957.7276348632812,569.8020063793946Q957.7013348632812,569.7794263793945,957.6800348632812,569.7521463793945Q957.6587348632812,569.7248563793945,957.6431348632813,569.6939763793945Q957.6276348632813,569.6630963793946,957.6183348632812,569.6297063793945Q957.6091348632813,569.5963863793945,957.6065348632812,569.5618363793945Q957.6039348632812,569.5273563793945,957.6082348632813,569.4929863793946Q957.6124348632812,569.4586863793945,957.6232348632813,569.4257863793945Q957.6340348632813,569.3929563793945,957.6511348632813,569.3627963793946ZM959.3389348632812,566.3792193793945L959.6765348632813,565.7824783793945L959.6998348632812,565.7956623793946Q959.7230348632812,565.8087843793945,959.7661348632812,565.8331373793945Q959.8091348632812,565.8574903793946,959.8653348632813,565.8892893793945Q959.9215348632813,565.9210283793946,959.9823348632813,565.9554523793945Q960.0431348632812,565.9898753793946,960.0993348632812,566.0216753793945Q960.1555348632812,566.0534743793945,960.1985348632812,566.0777663793946Q960.2415348632812,566.1021193793945,960.2648348632813,566.1153033793945Q960.2881348632812,566.1284253793946,960.2881348632812,566.1284253793946L959.9505348632813,566.7251663793945Q959.9335348632812,566.7553163793946,959.9109348632812,566.7815063793945Q959.8883348632812,566.8077463793945,959.8610348632812,566.8290463793945Q959.8338348632813,566.8503463793945,959.8029348632813,566.8659163793945Q959.7720348632813,566.8814763793945,959.7386348632813,566.8907563793945Q959.7053348632812,566.8999663793945,959.6708348632812,566.9025363793945Q959.6363348632813,566.9050963793945,959.6019348632813,566.9008863793945Q959.5676348632812,566.8966763793945,959.5347348632813,566.8858763793945Q959.5018348632813,566.8750063793946,959.4717348632812,566.8579763793946Q959.4416348632813,566.8409463793945,959.4154348632812,566.8183663793945Q959.3892348632812,566.7957863793945,959.3679348632812,566.7684963793945Q959.3466348632812,566.7412163793946,959.3310348632813,566.7103363793946Q959.3154348632812,566.6794463793946,959.3062348632812,566.6461263793946Q959.2969348632812,566.6127363793945,959.2943348632813,566.5782543793945Q959.2918348632812,566.5437083793945,959.2960348632812,566.5094073793946Q959.3002348632813,566.4750443793945,959.3110348632813,566.4422073793945Q959.3219348632813,566.4093093793946,959.3389348632812,566.3792193793945ZM940.0782468632813,601.7589763793945Q940.0782468632813,601.7934763793945,940.0715328632813,601.8272763793946Q940.0647578632812,601.8610763793945,940.0515748632813,601.8929763793946Q940.0383908632813,601.9247763793945,940.0192258632812,601.9534763793945Q940.0001218632813,601.9820763793946,939.9757078632813,602.0064763793945Q939.9513548632813,602.0308763793945,939.9226688632813,602.0499763793945Q939.8940428632812,602.0691763793945,939.8621828632813,602.0823763793945Q939.8303218632813,602.0955763793945,939.7965088632812,602.1022763793945Q939.7626948632812,602.1089763793946,939.7282108632812,602.1089763793946Q939.6937868632813,602.1089763793946,939.6599728632813,602.1022763793945Q939.6261598632813,602.0955763793945,939.5942988632812,602.0823763793945Q939.5624388632813,602.0691763793945,939.5338138632812,602.0499763793945Q939.5051268632812,602.0308763793945,939.4807738632812,602.0064763793945Q939.4563598632812,601.9820763793946,939.4371948632812,601.9534763793945Q939.4180908632812,601.9247763793945,939.4048461632813,601.8929763793946Q939.3916625632812,601.8610763793945,939.3849487332812,601.8272763793946Q939.3782348632812,601.7934763793945,939.3782348632812,601.7589763793945Q939.3782348632812,601.7245763793945,939.3849487332812,601.6906763793945Q939.3916625632812,601.6568763793946,939.4048461632813,601.6250763793945Q939.4180908632812,601.5931763793945,939.4371948632812,601.5645763793946Q939.4563598632812,601.5358763793945,939.4807738632812,601.5114763793945Q939.5051268632812,601.4871763793946,939.5338138632812,601.4679763793945Q939.5624388632813,601.4488763793945,939.5942988632812,601.4356763793945Q939.6261598632813,601.4224763793945,939.6599728632813,601.4156763793945Q939.6937868632813,601.4089763793945,939.7282108632812,601.4089763793945Q939.7626948632812,601.4089763793945,939.7965088632812,601.4156763793945Q939.8303218632813,601.4224763793945,939.8621828632813,601.4356763793945Q939.8940428632812,601.4488763793945,939.9226688632813,601.4679763793945Q939.9513548632813,601.4871763793946,939.9757078632813,601.5114763793945Q940.0001218632813,601.5358763793945,940.0192258632812,601.5645763793946Q940.0383908632813,601.5931763793945,940.0515748632813,601.6250763793945Q940.0647578632812,601.6568763793946,940.0715328632813,601.6906763793945Q940.0782468632813,601.7245763793945,940.0782468632813,601.7589763793945ZM960.3323348632813,565.9554523793945Q960.3323348632813,565.9899363793945,960.3256348632813,566.0237503793945Q960.3188348632813,566.0575633793945,960.3056348632813,566.0894243793946Q960.2924348632813,566.1212233793946,960.2733348632812,566.1499103793946Q960.2541348632813,566.1785963793945,960.2298348632812,566.2029493793946Q960.2054348632812,566.2273023793946,960.1767348632812,566.2464673793945Q960.1481348632813,566.2656323793946,960.1162348632813,566.2788163793946Q960.0844348632812,566.2919993793945,960.0506348632813,566.2987133793945Q960.0168348632812,566.3054883793945,959.9823348632813,566.3054883793945Q959.9478348632813,566.3054883793945,959.9140348632812,566.2987133793945Q959.8802348632812,566.2919993793945,959.8483348632813,566.2788163793946Q959.8165348632813,566.2656323793946,959.7878348632812,566.2464673793945Q959.7592348632812,566.2273023793946,959.7348348632812,566.2029493793946Q959.7104348632813,566.1785963793945,959.6913348632812,566.1499103793946Q959.6721348632813,566.1212233793946,959.6589348632813,566.0894243793946Q959.6457348632813,566.0575633793945,959.6390348632813,566.0237503793945Q959.6323348632812,565.9899363793945,959.6323348632812,565.9554523793945Q959.6323348632812,565.9209673793945,959.6390348632813,565.8871533793945Q959.6457348632813,565.8534013793945,959.6589348632813,565.8215403793945Q959.6721348632813,565.7896803793946,959.6913348632812,565.7609943793946Q959.7104348632813,565.7323683793945,959.7348348632812,565.7079543793946Q959.7592348632812,565.6836013793945,959.7878348632812,565.6644363793945Q959.8165348632813,565.6452712793945,959.8483348632813,565.6320876793945Q959.8802348632812,565.6189040793945,959.9140348632812,565.6121902493945Q959.9478348632813,565.6054763793945,959.9823348632813,565.6054763793945Q960.0168348632812,565.6054763793945,960.0506348632813,565.6121902493945Q960.0844348632812,565.6189040793945,960.1162348632813,565.6320876793945Q960.1481348632813,565.6452712793945,960.1767348632812,565.6644363793945Q960.2054348632812,565.6836013793945,960.2298348632812,565.7079543793946Q960.2541348632813,565.7323683793945,960.2733348632812,565.7609943793946Q960.2924348632813,565.7896803793946,960.3056348632813,565.8215403793945Q960.3188348632813,565.8534013793945,960.3256348632813,565.8871533793945Q960.3323348632813,565.9209673793945,960.3323348632813,565.9554523793945Z" fill="#BACAD9" fill-opacity="1"/></g></g><g style="mix-blend-mode:passthrough" transform="matrix(0.8660253882408142,0.5,-0.5,0.8660253882408142,403.1777958606581,-438.1586957300201)"><g style="opacity:0.44999998807907104;mix-blend-mode:passthrough"><g><ellipse cx="1028.3389892578125" cy="542.3883085250854" rx="9.13482666015625" ry="9.127680778503418" fill="#CFDAE6" fill-opacity="1"/></g></g><g style="mix-blend-mode:passthrough" transform="matrix(-1,0,0,-1,2074.94775390625,1103.031997680664)"><g><path d="M1055.743576953125,560.6436888403321C1055.743576953125,555.602608840332,1051.653676953125,551.515998840332,1046.608646953125,551.515998840332C1041.563596953125,551.515998840332,1037.473876953125,555.602608840332,1037.473876953125,560.6436888403321L1055.743576953125,560.6436888403321Z" fill-rule="evenodd" fill="#CFDAE6" fill-opacity="1"/></g></g></g></g><g style="opacity:0.44999998807907104;mix-blend-mode:passthrough" transform="matrix(0.9612616896629333,-0.27563735842704773,0.27563735842704773,0.9612616896629333,-7.033516473235977,1.0219846730960853)"><g style="mix-blend-mode:passthrough"><g><ellipse cx="45.060646533966064" cy="71.43679428100586" rx="39.5" ry="39.5" fill-opacity="0" stroke-opacity="1" stroke="#CFDAE6" fill="none" stroke-width="0.800000011920929"/></g></g><g style="mix-blend-mode:passthrough"><g><path d="M29.319943577575685,39.7083737084961Q21.648583577575685,43.89375370849609,16.778617577575684,51.16241370849609L16.453533577575683,50.94461370849609L16.671338577575682,50.61961370849609L17.321503577575683,51.0552137084961L17.103703577575683,51.38021370849609L16.778617577575684,51.16241370849609Q21.648583577575685,43.89377370849609,29.319943577575685,39.7083737084961Q37.23824357757569,35.3882217084961,46.31774357757568,35.3882217084961L46.31774357757568,35.77952370849609L45.92644357757568,35.77952370849609L45.92644357757568,34.99691770849609L46.31774357757568,34.99691770849609L46.31774357757568,35.3882217084961Q37.23824357757569,35.388225708496094,29.319943577575685,39.7083737084961ZM28.945143577575685,39.0213637084961Q37.038643577575684,34.605613708496094,46.31774357757568,34.605613708496094L46.709043577575684,34.605613708496094L46.709043577575684,36.170823708496094L46.31774357757568,36.170823708496094Q37.43794357757568,36.170823708496094,29.694743577575686,40.395373708496095Q22.191923577575682,44.488873708496094,17.428783577575683,51.59811370849609L17.210983577575682,51.92311370849609L15.910643577575684,51.051913708496095L16.128448577575682,50.726813708496096Q21.105253577575684,43.29870370849609,28.945143577575685,39.0213637084961ZM64.06714357757568,101.6463137084961Q72.03354357757568,97.04521370849609,76.77864357757568,89.16361370849609L77.11394357757568,89.36541370849609L76.91204357757567,89.7007137084961L76.24164357757569,89.2970137084961L76.44344357757569,88.9618137084961L76.77864357757568,89.16361370849609Q72.03364357757567,97.0451137084961,64.06714357757568,101.6463137084961Q55.856343577575686,106.3883137084961,46.31774357757568,106.38841370849609L46.31774357757568,105.99711370849609L46.709043577575684,105.99711370849609L46.709043577575684,106.77981370849609L46.31774357757568,106.77981370849609L46.31774357757568,106.38841370849609Q55.856343577575686,106.38851370849609,64.06714357757568,101.6463137084961ZM64.45854357757568,102.3240137084961Q56.066043577575684,107.1711137084961,46.31774357757568,107.1711137084961L45.92644357757568,107.1711137084961L45.92644357757568,105.6058137084961L46.31774357757568,105.6058137084961Q55.646543577575684,105.60591370849609,63.67574357757568,100.9686137084961Q71.46734357757569,96.46841370849609,76.10814357757567,88.7600137084961L76.31004357757568,88.42471370849609L77.65094357757567,89.23201370849608L77.44914357757568,89.5673137084961Q72.59994357757569,97.6219137084961,64.45854357757568,102.3240137084961Z" fill="#DDE4EB" fill-opacity="1"/></g></g><g style="mix-blend-mode:passthrough"><g><ellipse cx="45.579437255859375" cy="31.534027099609375" rx="6" ry="6" fill="#F0F2F5" fill-opacity="1"/></g><g><ellipse cx="45.579437255859375" cy="31.534027099609375" rx="6" ry="6" fill-opacity="0" stroke-opacity="1" stroke="#CFDAE6" fill="none" stroke-width="0.8695651888847351"/></g></g><g style="mix-blend-mode:passthrough"><g><ellipse cx="85.23905181884766" cy="70.99432373046875" rx="6" ry="6" fill="#CFDAE6" fill-opacity="1"/></g></g><g style="mix-blend-mode:passthrough"><g><ellipse cx="6.119140625" cy="71.19364166259766" rx="6" ry="6" fill="#F7E1AD" fill-opacity="1"/></g></g><g style="mix-blend-mode:passthrough"><g><ellipse cx="45.77875518798828" cy="110.6539306640625" rx="6" ry="6" fill="#CFDAE6" fill-opacity="1"/></g></g></g><g style="opacity:0.7999999523162842;mix-blend-mode:passthrough" transform="matrix(0.30043941736221313,-0.9538008570671082,0.9538008570671082,0.30043941736221313,564.3292536620525,975.3034675795238)"><g style="mix-blend-mode:passthrough"><ellipse cx="1001.262767791748" cy="141.53418922424316" rx="13.5" ry="13.5" fill-opacity="0" stroke-opacity="1" stroke="#CFDAE6" fill="none" stroke-width="0.9411764740943909"/></g><g style="mix-blend-mode:passthrough"><g style="opacity:0.44999998807907104;mix-blend-mode:passthrough"><ellipse cx="1000.4250478744507" cy="141.30469036102295" rx="10.31135082244873" ry="10.15136432647705" fill="#BACAD9" fill-opacity="1"/></g><g style="mix-blend-mode:passthrough"><path d="M1000.4250478744507,151.4560260345459C1006.1198478744507,151.4560260345459,1010.7364478744507,146.9111260345459,1010.7364478744507,141.3047260345459C1010.7364478744507,135.6982460345459,1006.1198478744507,131.1533260345459,1000.4250478744507,131.1533260345459L1000.4250478744507,151.4560260345459Z" fill-rule="evenodd" fill="#BACAD9" fill-opacity="1"/></g></g><g style="mix-blend-mode:passthrough"><path d="M954.7914682192383,107.75863911227417L989.7914372192383,131.75864711227416L989.2592372192382,132.53484711227418L954.2592062192383,108.53485511227417L954.7914682192383,107.75863911227417Z" fill="#CFDAE6" fill-opacity="1"/></g><g style="mix-blend-mode:passthrough"><ellipse cx="951.3651489019394" cy="106.94043731689453" rx="4" ry="4" fill-opacity="0" stroke-opacity="1" stroke="#CFDAE6" fill="none" stroke-width="0.9411764740943909"/></g><g style="mix-blend-mode:passthrough"><ellipse cx="950.54296875" cy="176.92488861083984" rx="3.5" ry="3.5" fill="#F7E1AD" fill-opacity="1"/></g><g style="mix-blend-mode:passthrough"><path d="M953.372474320343,175.3224385986328L989.372496320343,150.3224115986328L989.9092963203431,151.0954655986328L953.909318320343,176.09543859863282L953.372474320343,175.3224385986328Z" fill="#CFDAE6" fill-opacity="1"/></g></g></g></g></svg>